<svg width="204.0125px" height="273.2px" xmlns="http://www.w3.org/2000/svg" viewBox="147.99375 -61.599999999999994 204.0125 273.2" style="background: rgb(0, 0, 0);" preserveAspectRatio="xMidYMid"><defs><filter id="editing-neon" x="-100%" y="-100%" width="300%" height="300%"><feFlood flood-color="#319e45" result="flood"></feFlood><feComposite operator="in" in="flood" in2="SourceAlpha" result="color"></feComposite><feFlood flood-color="#319e45" result="flood2"></feFlood><feComposite operator="in" in="flood2" in2="SourceAlpha" result="color2"></feComposite><feMorphology operator="dilate" radius="2" in="color" result="dilate"></feMorphology><feGaussianBlur stdDeviation="6" in="color" result="blur1"></feGaussianBlur><feGaussianBlur stdDeviation="2.5" in="color" result="blur2"></feGaussianBlur><feGaussianBlur stdDeviation="1" in="SourceAlpha" result="blur3"></feGaussianBlur><feGaussianBlur stdDeviation="6" in="dilate" result="blur4"></feGaussianBlur><feConvolveMatrix in="color2" result="conv" order="3,3" divisor="1" kernelMatrix="1 1 1  1 1 1  1 1 1"></feConvolveMatrix><feMerge><feMergeNode in="blur1"></feMergeNode><feMergeNode in="blur2"></feMergeNode><feMergeNode in="blur4"></feMergeNode><feMergeNode in="blur3"></feMergeNode><feMergeNode in="blur3"></feMergeNode><feMergeNode in="blur3"></feMergeNode><feMergeNode in="blur3"></feMergeNode><feMergeNode in="conv"></feMergeNode><feMergeNode in="SourceGraphic"></feMergeNode></feMerge></filter></defs><g filter="url(#editing-neon)"><g transform="translate(181.82501220703125, 133.49999809265137)"><path d="M113.10 1.50L104.10 1.50L32.85-92.40L32.25-92.40L32.25-28.35L32.25-28.35Q32.25-20.85 32.77-16.50L32.77-16.50L32.77-16.50Q33.30-12.15 34.88-9.75L34.88-9.75L34.88-9.75Q36.45-7.35 39.38-6.60L39.38-6.60L39.38-6.60Q42.30-5.85 47.10-5.70L47.10-5.70L47.10 0L6.75 0L6.75-5.70L6.75-5.70Q12-5.85 15.22-6.67L15.22-6.67L15.22-6.67Q18.45-7.50 20.25-9.75L20.25-9.75L20.25-9.75Q22.05-12 22.65-16.13L22.65-16.13L22.65-16.13Q23.25-20.25 23.25-27.30L23.25-27.30L23.25-88.20L23.25-88.20Q23.25-94.50 22.72-98.63L22.72-98.63L22.72-98.63Q22.20-102.75 20.63-105.15L20.63-105.15L20.63-105.15Q19.05-107.55 16.05-108.52L16.05-108.52L16.05-108.52Q13.05-109.50 8.25-109.80L8.25-109.80L8.25-115.50L37.95-115.50L103.50-28.05L104.10-28.05L104.10-87.15L104.10-87.15Q104.10-94.50 103.58-98.92L103.58-98.92L103.58-98.92Q103.05-103.35 101.47-105.75L101.47-105.75L101.47-105.75Q99.90-108.15 96.97-108.90L96.97-108.90L96.97-108.90Q94.05-109.65 89.25-109.80L89.25-109.80L89.25-115.50L129.60-115.50L129.60-109.80L129.60-109.80Q124.35-109.65 121.13-108.83L121.13-108.83L121.13-108.83Q117.90-108 116.10-105.75L116.10-105.75L116.10-105.75Q114.30-103.50 113.70-99.30L113.70-99.30L113.70-99.30Q113.10-95.10 113.10-88.20L113.10-88.20L113.10 1.50Z" fill="none" stroke="#cfffd4" stroke-width="4"></path></g></g><style>text {
  font-size: 64px;
  font-family: Arial Black;
  dominant-baseline: central;
  text-anchor: middle;
}</style></svg>