{"accessors" : [{"bufferView" : 0, "byteOffset" : 0, "componentType" : 5123, "count" : 288, "type" : "SCALAR", "max" : [287], "min" : [0]}, {"bufferView" : 1, "byteOffset" : 0, "componentType" : 5126, "count" : 288, "type" : "VEC3", "max" : [-0.41051363945007324, -1.0626163482666016, 1], "min" : [-6.389991760253906, -3.029798984527588, -1], "name" : "POSITION"}, {"bufferView" : 1, "byteOffset" : 12, "componentType" : 5126, "count" : 288, "type" : "VEC3", "max" : [0.3461035490036011, 0.9998618364334106, 1.0000044107437134], "min" : [-0.34610408544540405, -0.9998618364334106, -1.0000044107437134], "name" : "NORMAL"}, {"bufferView" : 0, "byteOffset" : 576, "componentType" : 5123, "count" : 24, "type" : "SCALAR", "max" : [23], "min" : [0]}, {"bufferView" : 2, "byteOffset" : 0, "componentType" : 5126, "count" : 24, "type" : "VEC3", "max" : [-1.031165599822998, -1.08732008934021, 0.9767895340919495], "min" : [-6.209630966186523, -2.997659206390381, -0.9585707187652588], "name" : "POSITION"}, {"bufferView" : 2, "byteOffset" : 12, "componentType" : 5126, "count" : 24, "type" : "VEC3", "max" : [-0.3461029529571533, 0.9382011890411377, 0], "min" : [-0.3461030423641205, 0.9382011890411377, 0], "name" : "NORMAL"}, {"bufferView" : 0, "byteOffset" : 624, "componentType" : 5123, "count" : 288, "type" : "SCALAR", "max" : [287], "min" : [0]}, {"bufferView" : 3, "byteOffset" : 0, "componentType" : 5126, "count" : 288, "type" : "VEC3", "max" : [-0.41051363945007324, 3.029798984527588, 1], "min" : [-6.389991760253906, 1.0626163482666016, -1], "name" : "POSITION"}, {"bufferView" : 3, "byteOffset" : 12, "componentType" : 5126, "count" : 288, "type" : "VEC3", "max" : [0.3461035490036011, 0.9998618364334106, 1.0000044107437134], "min" : [-0.3461039364337921, -0.9998618364334106, -1.0000044107437134], "name" : "NORMAL"}, {"bufferView" : 0, "byteOffset" : 1200, "componentType" : 5123, "count" : 24, "type" : "SCALAR", "max" : [23], "min" : [0]}, {"bufferView" : 4, "byteOffset" : 0, "componentType" : 5126, "count" : 24, "type" : "VEC3", "max" : [-1.031165599822998, 2.997659206390381, 0.9767895340919495], "min" : [-6.209630966186523, 1.08732008934021, -0.9585707187652588], "name" : "POSITION"}, {"bufferView" : 4, "byteOffset" : 12, "componentType" : 5126, "count" : 24, "type" : "VEC3", "max" : [-0.3461029529571533, -0.9382011890411377, 0], "min" : [-0.3461030423641205, -0.9382012486457825, 0], "name" : "NORMAL"}, {"bufferView" : 0, "byteOffset" : 1248, "componentType" : 5123, "count" : 288, "type" : "SCALAR", "max" : [287], "min" : [0]}, {"bufferView" : 5, "byteOffset" : 0, "componentType" : 5126, "count" : 288, "type" : "VEC3", "max" : [0.02215754985809326, 1, 1], "min" : [-1, -1, -1], "name" : "POSITION"}, {"bufferView" : 5, "byteOffset" : 12, "componentType" : 5126, "count" : 288, "type" : "VEC3", "max" : [1.0000044107437134, 1.0000044107437134, 1.0000044107437134], "min" : [-1.0000044107437134, -1.0000044107437134, -1.0000044107437134], "name" : "NORMAL"}, {"bufferView" : 0, "byteOffset" : 1824, "componentType" : 5123, "count" : 24, "type" : "SCALAR", "max" : [23], "min" : [0]}, {"bufferView" : 6, "byteOffset" : 0, "componentType" : 5126, "count" : 24, "type" : "VEC3", "max" : [-0.8784745335578918, 0.9767895936965942, 0.9767895340919495], "min" : [-0.8784745335578918, -0.9767895936965942, -0.9585707187652588], "name" : "POSITION"}, {"bufferView" : 6, "byteOffset" : 12, "componentType" : 5126, "count" : 24, "type" : "VEC3", "max" : [-1.0000044107437134, 7.663311762939884E-09, 0], "min" : [-1.0000044107437134, 0, 0], "name" : "NORMAL"}, {"bufferView" : 0, "byteOffset" : 1872, "componentType" : 5123, "count" : 567, "type" : "SCALAR", "max" : [566], "min" : [0]}, {"bufferView" : 7, "byteOffset" : 0, "componentType" : 5126, "count" : 567, "type" : "VEC3", "max" : [6.391644477844238, 2.1095263957977295, 0.06853370368480682], "min" : [-4.3875322341918945, -2.1095263957977295, -2.4245858192443848], "name" : "POSITION"}, {"bufferView" : 7, "byteOffset" : 12, "componentType" : 5126, "count" : 567, "type" : "VEC3", "max" : [1.0000044107437134, 1.0000044107437134, 1.0000044107437134], "min" : [-1.0000044107437134, -1.0000044107437134, -1.0000044107437134], "name" : "NORMAL"}], "asset" : {"generator" : "Aspose.3D 23.2", "version" : "2.0"}, "buffers" : [{"uri" : "data:application/octet-stream;base64,", "byteLength" : 39112}], "bufferViews" : [{"buffer" : 0, "byteOffset" : 0, "byteLength" : 3008, "target" : 34963}, {"buffer" : 0, "byteOffset" : 3012, "byteLength" : 6912, "byteStride" : 24, "target" : 34962}, {"buffer" : 0, "byteOffset" : 9928, "byteLength" : 576, "byteStride" : 24, "target" : 34962}, {"buffer" : 0, "byteOffset" : 10508, "byteLength" : 6912, "byteStride" : 24, "target" : 34962}, {"buffer" : 0, "byteOffset" : 17424, "byteLength" : 576, "byteStride" : 24, "target" : 34962}, {"buffer" : 0, "byteOffset" : 18004, "byteLength" : 6912, "byteStride" : 24, "target" : 34962}, {"buffer" : 0, "byteOffset" : 24920, "byteLength" : 576, "byteStride" : 24, "target" : 34962}, {"buffer" : 0, "byteOffset" : 25500, "byteLength" : 13608, "byteStride" : 24, "target" : 34962}], "cameras" : [{"perspective" : {"aspectRatio" : 1.777777777777778, "yfov" : 0.8575560450553893, "zfar" : 10000, "znear" : 10.000000149011612}, "type" : "perspective", "name" : "Camera"}], "materials" : [{"name" : "Material.002", "pbrMetallicRoughness" : {"baseColorFactor" : [0.8, 0.8, 0.8, 1], "metallicFactor" : 0, "roughnessFactor" : 0}, "emissiveFactor" : [0, 0, 0], "alphaMode" : "OPAQUE", "doubleSided" : false}, {"name" : "Material.003", "pbrMetallicRoughness" : {"baseColorFactor" : [0.8, 0.8, 0.8, 1], "metallicFactor" : 0, "roughnessFactor" : 0}, "emissiveFactor" : [0, 0, 0], "alphaMode" : "OPAQUE", "doubleSided" : false}, {"name" : "Material.002", "pbrMetallicRoughness" : {"baseColorFactor" : [0.8, 0.8, 0.8, 1], "metallicFactor" : 0, "roughnessFactor" : 0}, "emissiveFactor" : [0, 0, 0], "alphaMode" : "OPAQUE", "doubleSided" : false}, {"name" : "Material.003", "pbrMetallicRoughness" : {"baseColorFactor" : [0.8, 0.8, 0.8, 1], "metallicFactor" : 0, "roughnessFactor" : 0}, "emissiveFactor" : [0, 0, 0], "alphaMode" : "OPAQUE", "doubleSided" : false}, {"name" : "Material.002", "pbrMetallicRoughness" : {"baseColorFactor" : [0.8, 0.8, 0.8, 1], "metallicFactor" : 0, "roughnessFactor" : 0}, "emissiveFactor" : [0, 0, 0], "alphaMode" : "OPAQUE", "doubleSided" : false}, {"name" : "Material.003", "pbrMetallicRoughness" : {"baseColorFactor" : [0.8, 0.8, 0.8, 1], "metallicFactor" : 0, "roughnessFactor" : 0}, "emissiveFactor" : [0, 0, 0], "alphaMode" : "OPAQUE", "doubleSided" : false}, {"name" : "Material.001", "pbrMetallicRoughness" : {"baseColorFactor" : [0.8, 0.8, 0.8, 1], "metallicFactor" : 0, "roughnessFactor" : 0}, "emissiveFactor" : [0, 0, 0], "alphaMode" : "OPAQUE", "doubleSided" : false}], "meshes" : [{"primitives" : [{"attributes" : {"POSITION" : 1, "NORMAL" : 2}, "indices" : 0, "material" : 0, "mode" : 4}, {"attributes" : {"POSITION" : 4, "NORMAL" : 5}, "indices" : 3, "material" : 1, "mode" : 4}], "name" : "Cube.007"}, {"primitives" : [{"attributes" : {"POSITION" : 7, "NORMAL" : 8}, "indices" : 6, "material" : 2, "mode" : 4}, {"attributes" : {"POSITION" : 10, "NORMAL" : 11}, "indices" : 9, "material" : 3, "mode" : 4}], "name" : "Cube.006"}, {"primitives" : [{"attributes" : {"POSITION" : 13, "NORMAL" : 14}, "indices" : 12, "material" : 4, "mode" : 4}, {"attributes" : {"POSITION" : 16, "NORMAL" : 17}, "indices" : 15, "material" : 5, "mode" : 4}], "name" : "Cube.003"}, {"primitives" : [{"attributes" : {"POSITION" : 19, "NORMAL" : 20}, "indices" : 18, "material" : 6, "mode" : 4}], "name" : "Cube.002"}], "nodes" : [{"matrix" : [11.940160751342773, 0, 0, 0, 0, -2.4645041723667936E-05, -151.27018737792767, 0, 0, 99.99999999999866, -1.6292067955264296E-05, 0, -107.76996612548828, 65.09527587890625, -70.62076568603516, 1], "mesh" : 0, "name" : "Right"}, {"matrix" : [11.940160751342773, 0, 0, 0, 0, -2.4645041723667936E-05, -151.27018737792767, 0, 0, 99.99999999999866, -1.6292067955264296E-05, 0, -107.76996612548828, 65.09527587890625, -70.62076568603516, 1], "mesh" : 1, "name" : "Left"}, {"matrix" : [11.940160751342773, 0, 0, 0, 0, -2.4645041723667936E-05, -151.27018737792767, 0, 0, 99.99999999999866, -1.6292067955264296E-05, 0, -107.76996612548828, 65.09527587890625, -70.62076568603516, 1], "mesh" : 2, "name" : "Middle"}, {"matrix" : [11.940160751342773, 0, 0, 0, 0, -2.4645041723667936E-05, -151.27018737792767, 0, 0, 99.99999999999866, -1.6292067955264296E-05, 0, -107.76996612548828, 65.09527587890625, -70.62076568603516, 1], "mesh" : 3, "name" : "Stand"}, {"camera" : 0, "matrix" : [-55.036081979040205, 62.40084730227389, 55.472176904064405, 0, 47.56767945947559, 78.03685578510795, -40.59020830218598, 0, -68.61737659380667, 4.047566982264354, -72.63106294849985, 0, 416.9635314941406, -645.1769409179688, -830.21533203125, 1], "name" : "Camera"}], "scene" : 0, "scenes" : [{"nodes" : [0, 1, 2, 3, 4]}]}