# Blender v2.79 (sub 0) OBJ File: 'Triple monitor display.blend'
# www.blender.org
mtllib Triple monitor display.mtl
o Right_Cube.007
v -1.207665 -0.349047 0.901214
v -1.207665 1.650953 0.901214
v -1.126716 -0.349047 0.918535
v -1.126716 1.650953 0.918535
v -1.215012 -0.307618 0.935547
v -1.215012 1.627742 0.935547
v -1.200822 -0.307618 0.938583
v -1.200822 1.627742 0.938583
v -1.376726 0.439857 2.086987
v -1.376726 0.862049 2.086987
v -1.207665 0.650953 0.901214
v -1.126716 0.650953 0.918535
v -1.215012 0.660062 0.935547
v -1.200822 0.660062 0.938583
v -1.376726 0.650953 2.086987
v -1.338330 0.862049 2.095202
v -1.338330 0.650953 2.095202
v -1.338330 0.439857 2.095202
v -1.389078 0.719486 2.332379
v -1.389078 0.650953 2.332379
v -1.389078 0.582419 2.332379
v -1.840675 -0.349047 3.859654
v -1.840675 1.650953 3.859654
v -1.759725 -0.349047 3.876975
v -1.759725 1.650953 3.876975
v -1.833329 -0.307618 3.825321
v -1.833329 1.627742 3.825321
v -1.819140 -0.307618 3.828357
v -1.819140 1.627742 3.828357
v -1.509715 0.439857 2.708523
v -1.509715 0.862049 2.708523
v -1.524170 -0.349047 2.380434
v -1.524170 1.650953 2.380434
v -1.443220 -0.349047 2.397755
v -1.443220 1.650953 2.397755
v -1.524170 -0.307618 2.380434
v -1.524170 1.627742 2.380434
v -1.509981 -0.307618 2.383470
v -1.509981 1.627742 2.383470
v -1.443220 0.439857 2.397755
v -1.443220 0.862049 2.397755
v -1.840675 0.650953 3.859654
v -1.759725 0.650953 3.876975
v -1.833329 0.660062 3.825321
v -1.819140 0.660062 3.828357
v -1.509715 0.650953 2.708523
v -1.509981 0.660062 2.383470
v -1.404824 0.439857 2.405970
v -1.404824 0.862049 2.405970
v -1.471318 0.862049 2.716738
v -1.471318 0.650953 2.716738
v -1.471318 0.439857 2.716738
v -1.404824 0.582419 2.405970
v -1.404824 0.719486 2.405970
v -1.420570 0.719486 2.479561
v -1.420570 0.650953 2.479561
v -1.420570 0.582419 2.479561
vn 0.9779 0.0000 0.2092
vn 0.2092 0.0000 -0.9779
vn 0.0000 -1.0000 0.0000
vn 0.0000 1.0000 0.0000
vn -0.9779 0.0000 -0.2092
vn -0.2092 0.0000 0.9779
usemtl Material.002
s off
f 35//1 41//1 10//1 4//1
f 12//2 11//2 2//2 4//2
f 32//3 1//3 3//3 34//3
f 35//4 4//4 2//4 33//4
f 11//5 13//5 6//5 2//5
f 32//5 36//5 5//5 1//5
f 36//4 38//4 7//4 5//4
f 13//6 14//6 8//6 6//6
f 12//1 15//1 9//1 3//1
f 3//1 9//1 40//1 34//1
f 41//4 49//4 16//4 10//4
f 2//5 6//5 37//5 33//5
f 6//3 8//3 39//3 37//3
f 10//2 16//2 17//2 15//2
f 4//1 10//1 15//1 12//1
f 5//6 7//6 14//6 13//6
f 1//5 5//5 13//5 11//5
f 3//2 1//2 11//2 12//2
f 17//1 20//1 21//1 18//1
f 9//3 18//3 48//3 40//3
f 15//2 17//2 18//2 9//2
f 16//1 19//1 20//1 17//1
f 18//1 21//1 53//1 48//1
f 49//1 54//1 19//1 16//1
f 35//1 25//1 31//1 41//1
f 43//6 25//6 23//6 42//6
f 32//3 34//3 24//3 22//3
f 35//4 33//4 23//4 25//4
f 42//5 23//5 27//5 44//5
f 32//5 22//5 26//5 36//5
f 36//4 26//4 28//4 38//4
f 44//2 27//2 29//2 45//2
f 43//1 24//1 30//1 46//1
f 24//1 34//1 40//1 30//1
f 41//4 31//4 50//4 49//4
f 23//5 33//5 37//5 27//5
f 27//3 37//3 39//3 29//3
f 31//6 46//6 51//6 50//6
f 25//1 43//1 46//1 31//1
f 26//2 44//2 45//2 28//2
f 22//5 42//5 44//5 26//5
f 24//6 43//6 42//6 22//6
f 51//1 52//1 57//1 56//1
f 30//3 40//3 48//3 52//3
f 46//6 30//6 52//6 51//6
f 50//1 51//1 56//1 55//1
f 52//1 48//1 53//1 57//1
f 49//1 50//1 55//1 54//1
usemtl Material.003
f 14//5 47//5 39//5 8//5
f 7//5 38//5 47//5 14//5
f 45//5 29//5 39//5 47//5
f 28//5 45//5 47//5 38//5
o Left_Cube.006
v -1.207665 -0.349047 -2.313629
v -1.207665 1.650953 -2.313629
v -1.126716 -0.349047 -2.330950
v -1.126716 1.650953 -2.330950
v -1.215012 -0.307618 -2.347963
v -1.215012 1.627742 -2.347963
v -1.200822 -0.307618 -2.350999
v -1.200822 1.627742 -2.350999
v -1.376726 0.439857 -3.499402
v -1.376726 0.862049 -3.499402
v -1.207665 0.650953 -2.313629
v -1.126716 0.650953 -2.330950
v -1.215012 0.660062 -2.347963
v -1.200822 0.660062 -2.350999
v -1.376726 0.650953 -3.499402
v -1.338330 0.862049 -3.507618
v -1.338330 0.650953 -3.507618
v -1.338330 0.439857 -3.507618
v -1.389078 0.719486 -3.744795
v -1.389078 0.650953 -3.744795
v -1.389078 0.582419 -3.744795
v -1.840675 -0.349047 -5.272069
v -1.840675 1.650953 -5.272069
v -1.759725 -0.349047 -5.289391
v -1.759725 1.650953 -5.289391
v -1.833329 -0.307618 -5.237736
v -1.833329 1.627742 -5.237736
v -1.819140 -0.307618 -5.240772
v -1.819140 1.627742 -5.240772
v -1.509715 0.439857 -4.120938
v -1.509715 0.862049 -4.120938
v -1.524170 -0.349047 -3.792850
v -1.524170 1.650953 -3.792850
v -1.443220 -0.349047 -3.810170
v -1.443220 1.650953 -3.810170
v -1.524170 -0.307618 -3.792850
v -1.524170 1.627742 -3.792850
v -1.509981 -0.307618 -3.795886
v -1.509981 1.627742 -3.795886
v -1.443220 0.439857 -3.810170
v -1.443220 0.862049 -3.810170
v -1.840675 0.650953 -5.272069
v -1.759725 0.650953 -5.289391
v -1.833329 0.660062 -5.237736
v -1.819140 0.660062 -5.240772
v -1.509715 0.650953 -4.120938
v -1.509981 0.660062 -3.795886
v -1.404824 0.439857 -3.818386
v -1.404824 0.862049 -3.818386
v -1.471318 0.862049 -4.129154
v -1.471318 0.650953 -4.129154
v -1.471318 0.439857 -4.129154
v -1.404824 0.582419 -3.818386
v -1.404824 0.719486 -3.818386
v -1.420570 0.719486 -3.891976
v -1.420570 0.650953 -3.891976
v -1.420570 0.582419 -3.891976
vn 0.9779 0.0000 -0.2092
vn 0.2092 0.0000 0.9779
vn 0.0000 -1.0000 0.0000
vn 0.0000 1.0000 0.0000
vn -0.9779 0.0000 0.2092
vn -0.2092 0.0000 -0.9779
usemtl Material.002
s off
f 92//7 61//7 67//7 98//7
f 69//8 61//8 59//8 68//8
f 89//9 91//9 60//9 58//9
f 92//10 90//10 59//10 61//10
f 68//11 59//11 63//11 70//11
f 89//11 58//11 62//11 93//11
f 93//10 62//10 64//10 95//10
f 70//12 63//12 65//12 71//12
f 69//7 60//7 66//7 72//7
f 60//7 91//7 97//7 66//7
f 98//10 67//10 73//10 106//10
f 59//11 90//11 94//11 63//11
f 63//9 94//9 96//9 65//9
f 67//8 72//8 74//8 73//8
f 61//7 69//7 72//7 67//7
f 62//12 70//12 71//12 64//12
f 58//11 68//11 70//11 62//11
f 60//8 69//8 68//8 58//8
f 74//7 75//7 78//7 77//7
f 66//9 97//9 105//9 75//9
f 72//8 66//8 75//8 74//8
f 73//7 74//7 77//7 76//7
f 75//7 105//7 110//7 78//7
f 106//7 73//7 76//7 111//7
f 92//7 98//7 88//7 82//7
f 100//12 99//12 80//12 82//12
f 89//9 79//9 81//9 91//9
f 92//10 82//10 80//10 90//10
f 99//11 101//11 84//11 80//11
f 89//11 93//11 83//11 79//11
f 93//10 95//10 85//10 83//10
f 101//8 102//8 86//8 84//8
f 100//7 103//7 87//7 81//7
f 81//7 87//7 97//7 91//7
f 98//10 106//10 107//10 88//10
f 80//11 84//11 94//11 90//11
f 84//9 86//9 96//9 94//9
f 88//12 107//12 108//12 103//12
f 82//7 88//7 103//7 100//7
f 83//8 85//8 102//8 101//8
f 79//11 83//11 101//11 99//11
f 81//12 79//12 99//12 100//12
f 108//7 113//7 114//7 109//7
f 87//9 109//9 105//9 97//9
f 103//12 108//12 109//12 87//12
f 107//7 112//7 113//7 108//7
f 109//7 114//7 110//7 105//7
f 106//7 111//7 112//7 107//7
usemtl Material.003
f 71//11 65//11 96//11 104//11
f 64//11 71//11 104//11 95//11
f 102//11 104//11 96//11 86//11
f 85//11 95//11 104//11 102//11
o Middle_Cube.003
v -1.197101 -0.349047 0.806494
v -1.197101 1.650953 0.806494
v -1.114319 -0.349047 0.806494
v -1.114319 1.650953 0.806494
v -1.197101 -0.307618 0.771384
v -1.197101 1.627742 0.771384
v -1.182591 -0.307618 0.771384
v -1.182591 1.627742 0.771384
v -1.114319 0.439857 -0.388405
v -1.114319 0.862049 -0.388405
v -1.197101 0.650953 0.806494
v -1.114319 0.650953 0.806494
v -1.197101 0.660062 0.771384
v -1.182591 0.660062 0.771384
v -1.114319 0.650953 -0.388405
v -1.075054 0.862049 -0.388405
v -1.075054 0.650953 -0.388405
v -1.075054 0.439857 -0.388405
v -1.075054 0.719486 -0.630951
v -1.075054 0.650953 -0.630951
v -1.075054 0.582419 -0.630951
v -1.197101 -0.349047 -2.218910
v -1.197101 1.650953 -2.218910
v -1.114319 -0.349047 -2.218910
v -1.114319 1.650953 -2.218910
v -1.197101 -0.307618 -2.183799
v -1.197101 1.627742 -2.183799
v -1.182591 -0.307618 -2.183799
v -1.182591 1.627742 -2.183799
v -1.114319 0.439857 -1.024010
v -1.114319 0.862049 -1.024010
v -1.197101 -0.349047 -0.706208
v -1.197101 1.650953 -0.706208
v -1.114319 -0.349047 -0.706208
v -1.114319 1.650953 -0.706208
v -1.197101 -0.307618 -0.706208
v -1.197101 1.627742 -0.706208
v -1.182591 -0.307618 -0.706208
v -1.182591 1.627742 -0.706208
v -1.114319 0.439857 -0.706208
v -1.114319 0.862049 -0.706208
v -1.197101 0.650953 -2.218910
v -1.114319 0.650953 -2.218910
v -1.197101 0.660062 -2.183799
v -1.182591 0.660062 -2.183799
v -1.114319 0.650953 -1.024010
v -1.182591 0.660062 -0.706208
v -1.075054 0.439857 -0.706208
v -1.075054 0.862049 -0.706208
v -1.075054 0.862049 -1.024010
v -1.075054 0.650953 -1.024010
v -1.075054 0.439857 -1.024010
v -1.075054 0.582419 -0.706208
v -1.075054 0.719486 -0.706208
v -1.075054 0.719486 -0.781464
v -1.075054 0.650953 -0.781464
v -1.075054 0.582419 -0.781464
vn 1.0000 -0.0000 0.0000
vn 0.0000 0.0000 1.0000
vn 0.0000 -1.0000 0.0000
vn 0.0000 1.0000 0.0000
vn -1.0000 0.0000 0.0000
vn 0.0000 0.0000 -1.0000
usemtl Material.002
s off
f 149//13 118//13 124//13 155//13
f 126//14 118//14 116//14 125//14
f 146//15 148//15 117//15 115//15
f 149//16 147//16 116//16 118//16
f 125//17 116//17 120//17 127//17
f 146//17 115//17 119//17 150//17
f 150//16 119//16 121//16 152//16
f 127//18 120//18 122//18 128//18
f 126//13 117//13 123//13 129//13
f 117//13 148//13 154//13 123//13
f 155//16 124//16 130//16 163//16
f 116//17 147//17 151//17 120//17
f 120//15 151//15 153//15 122//15
f 124//14 129//14 131//14 130//14
f 118//13 126//13 129//13 124//13
f 119//18 127//18 128//18 121//18
f 115//17 125//17 127//17 119//17
f 117//14 126//14 125//14 115//14
f 131//13 132//13 135//13 134//13
f 123//15 154//15 162//15 132//15
f 129//14 123//14 132//14 131//14
f 130//13 131//13 134//13 133//13
f 132//13 162//13 167//13 135//13
f 163//13 130//13 133//13 168//13
f 149//13 155//13 145//13 139//13
f 157//18 156//18 137//18 139//18
f 146//15 136//15 138//15 148//15
f 149//16 139//16 137//16 147//16
f 156//17 158//17 141//17 137//17
f 146//17 150//17 140//17 136//17
f 150//16 152//16 142//16 140//16
f 158//14 159//14 143//14 141//14
f 157//13 160//13 144//13 138//13
f 138//13 144//13 154//13 148//13
f 155//16 163//16 164//16 145//16
f 137//17 141//17 151//17 147//17
f 141//15 143//15 153//15 151//15
f 145//18 164//18 165//18 160//18
f 139//13 145//13 160//13 157//13
f 140//14 142//14 159//14 158//14
f 136//17 140//17 158//17 156//17
f 138//18 136//18 156//18 157//18
f 165//13 170//13 171//13 166//13
f 144//15 166//15 162//15 154//15
f 160//18 165//18 166//18 144//18
f 164//13 169//13 170//13 165//13
f 166//13 171//13 167//13 162//13
f 163//13 168//13 169//13 164//13
usemtl Material.003
f 128//17 122//17 153//17 161//17
f 121//17 128//17 161//17 152//17
f 159//17 161//17 153//17 143//17
f 142//17 152//17 161//17 159//17
o Stand_Cube.002
v -0.892387 0.650953 0.844081
v -1.023719 0.582419 0.844081
v -0.892387 0.719486 0.844081
v -1.075054 0.719486 -0.630951
v -1.075054 0.650953 -0.630951
v -1.075054 0.582419 -0.630951
v -1.023719 0.650953 0.844081
v -1.023719 0.719486 0.844081
v -0.892387 0.582419 0.844081
v -0.892387 0.719486 -0.630951
v -0.892387 0.650953 -0.630951
v -0.892387 0.582419 -0.630951
v -1.386490 0.650953 2.484877
v -1.023719 0.719486 -0.630951
v -1.023719 0.582419 -0.630951
v -1.386490 0.582419 2.484877
v -1.255157 0.582419 2.484877
v -1.255157 0.650953 2.484877
v -1.023719 0.650953 -0.630951
v -1.255157 0.719486 2.484877
v -0.892387 -1.528848 -0.630951
v -1.023719 -1.528848 -0.630951
v -1.386490 0.719486 2.484877
v -1.220837 0.650953 2.329645
v -1.352169 0.650953 2.329645
v -1.220837 0.582419 2.329645
v -1.352169 0.719486 2.329645
v -1.220837 0.719486 2.329645
v -1.352169 0.582419 2.329645
v -1.389078 0.719486 -3.744795
v -1.389078 0.650953 -3.744795
v -1.389078 0.582419 -3.744795
v -1.404824 0.582419 -3.818386
v -1.404824 0.719486 -3.818386
v -1.420570 0.719486 -3.891976
v -1.420570 0.650953 -3.891976
v -1.420570 0.582419 -3.891976
v -0.892387 0.650953 -2.256496
v -1.023719 0.582419 -2.256496
v -0.892387 0.719486 -2.256496
v -1.075054 0.582419 -0.706208
v -1.075054 0.719486 -0.706208
v -1.075054 0.719486 -0.781464
v -1.075054 0.650953 -0.781464
v -1.075054 0.582419 -0.781464
v -1.023719 0.650953 -2.256496
v -1.023719 0.719486 -0.706208
v -1.023719 0.719486 -2.256496
v -0.892387 0.582419 -2.256496
v -0.892387 0.582419 -0.706208
v -0.892387 0.719486 -0.706208
v -0.892387 0.719486 -0.781464
v -0.892387 0.650953 -0.781464
v -0.892387 0.582419 -0.781464
v -1.386490 0.650953 -3.897292
v -0.892387 0.650953 -0.706208
v -1.023719 0.719486 -0.781464
v -1.023719 0.582419 -0.781464
v -1.023719 0.582419 -0.706208
v -1.386490 0.582419 -3.897292
v -1.255157 0.582419 -3.897292
v -1.255157 0.650953 -3.897292
v -1.023719 0.650953 -0.781464
v -1.023719 -1.528848 -0.706208
v -0.892387 -1.528848 -0.706208
v -1.255157 0.719486 -3.897292
v -0.892387 -1.528848 -0.781464
v -1.023719 -1.528848 -0.781464
v -1.386490 0.719486 -3.897292
v -1.220837 0.650953 -3.742061
v -1.352169 0.650953 -3.742061
v -1.220837 0.582419 -3.742061
v -1.352169 0.719486 -3.742061
v -1.220837 0.719486 -3.742061
v -1.352169 0.582419 -3.742061
v -1.389078 0.719486 2.332379
v -1.389078 0.650953 2.332379
v -1.389078 0.582419 2.332379
v -1.404824 0.582419 2.405970
v -1.404824 0.719486 2.405970
v -1.420570 0.719486 2.479561
v -1.420570 0.650953 2.479561
v -1.420570 0.582419 2.479561
v -0.869566 -1.528848 -0.706208
v -0.869566 -1.668215 -0.706208
v -0.869566 -1.528848 -0.604798
v -1.046540 -1.528848 -0.604798
v -1.046540 -1.528848 -0.706208
v -0.869566 -1.528848 -0.807618
v -1.046540 -1.528848 -0.807618
v -1.046540 -1.668215 -0.706208
v -0.869566 -1.668215 -0.604798
v -1.046540 -1.668215 -0.604798
v -0.869566 -1.668215 -0.807618
v -1.046540 -1.668215 -0.807618
v -1.601578 -1.668215 -1.829192
v -1.601578 -1.773633 -1.829192
v -0.314527 -1.668215 0.416777
v -0.314527 -1.668215 -0.706208
v -1.601578 -1.668215 0.416777
v -1.601578 -1.668215 -0.706208
v -0.314527 -1.668215 -1.829192
v -1.601578 -1.773633 -0.706208
v -0.314527 -1.773633 -0.706208
v -0.314527 -1.773633 0.416777
v -1.601578 -1.773633 0.416777
v -0.314527 -1.773633 -1.829192
vn 0.0000 1.0000 0.0000
vn -1.0000 0.0000 0.0000
vn 1.0000 0.0000 0.0000
vn 0.0000 -1.0000 0.0000
vn 0.9764 0.0000 0.2159
vn 0.0000 0.0000 1.0000
vn -0.1541 0.0000 0.9881
vn -0.9764 0.0000 -0.2159
vn -0.1541 0.0000 -0.9880
vn 0.9764 0.0000 -0.2159
vn 0.0000 0.0000 -1.0000
vn -0.9764 0.0000 0.2159
vn -0.0739 0.0000 -0.9973
vn -0.0739 0.0000 0.9973
usemtl Material.001
s off
f 218//19 185//19 181//19 222//19
f 190//20 186//20 173//20 178//20
f 182//21 181//21 174//21 172//21
f 227//21 222//21 181//21 182//21
f 183//21 182//21 172//21 180//21
f 186//22 183//22 180//22 173//22
f 221//21 227//21 182//21 183//21
f 185//20 190//20 178//20 179//20
f 200//22 187//22 254//22 250//22 249//22
f 181//19 185//19 179//19 174//19
f 195//23 199//23 191//23 189//23
f 175//24 176//24 190//24 185//24
f 197//23 195//23 189//23 188//23
f 176//24 177//24 186//24 190//24
f 200//22 197//22 188//22 187//22
f 177//22 212//22 230//22 186//22
f 213//19 175//19 185//19 218//19
f 187//25 184//25 194//25 252//25 253//25 254//25
f 199//19 198//19 194//19 191//19
f 194//24 184//24 189//24 191//24
f 186//20 230//20 235//20 193//20
f 221//21 183//21 192//21 236//21
f 183//24 186//24 193//24 192//24
f 184//24 187//24 188//24 189//24
f 174//19 179//19 198//19 199//19
f 179//26 178//26 196//26 198//26
f 173//22 180//22 197//22 200//22
f 180//23 172//23 195//23 197//23
f 172//23 174//23 199//23 195//23
f 178//26 173//26 200//26 196//26
f 218//19 222//19 223//19 228//19
f 234//20 217//20 210//20 229//20
f 224//21 209//21 211//21 223//21
f 227//21 224//21 223//21 222//21
f 225//21 220//21 209//21 224//21
f 229//22 210//22 220//22 225//22
f 221//21 225//21 224//21 227//21
f 228//20 219//20 217//20 234//20
f 207//27 206//27 240//27 226//27 231//27 208//27
f 223//19 211//19 219//19 228//19
f 241//28 233//28 237//28 245//28
f 214//29 228//29 234//29 215//29
f 243//28 232//28 233//28 241//28
f 215//29 234//29 229//29 216//29
f 246//22 231//22 232//22 243//22
f 216//22 229//22 230//22 212//22
f 213//19 218//19 228//19 214//19
f 205//19 201//19 244//19 240//19 206//19
f 245//19 237//19 240//19 244//19
f 240//29 237//29 233//29 226//29
f 229//20 239//20 235//20 230//20
f 221//21 236//21 238//21 225//21
f 225//29 238//29 239//29 229//29
f 226//29 233//29 232//29 231//29
f 211//19 245//19 244//19 219//19
f 219//30 244//30 242//30 217//30
f 210//22 246//22 243//22 220//22
f 220//28 243//28 241//28 209//28
f 209//28 241//28 245//28 211//28
f 217//30 242//30 246//30 210//30
f 198//19 247//19 251//19 252//19 194//19
f 196//31 200//31 249//31 248//31 247//31 198//31
f 203//22 204//22 208//22 231//22 246//22
f 202//32 203//32 246//32 242//32 244//32 201//32
f 235//19 239//19 261//19 259//19
f 236//19 192//19 257//19 255//19
f 193//19 235//19 259//19 258//19
f 239//19 238//19 260//19 261//19
f 192//19 193//19 258//19 257//19
f 238//19 236//19 255//19 260//19
f 257//24 258//24 264//24 263//24
f 260//21 255//21 256//21 265//21
f 261//29 260//29 265//29 266//29
f 258//20 259//20 262//20 264//20
f 255//21 257//21 263//21 256//21
f 259//20 261//20 266//20 262//20
f 256//19 263//19 269//19 270//19
f 264//19 262//19 272//19 271//19
f 266//19 265//19 273//19 267//19
f 263//19 264//19 271//19 269//19
f 265//19 256//19 270//19 273//19
f 262//19 266//19 267//19 272//19
f 273//21 270//21 275//21 278//21
f 272//20 267//20 268//20 274//20
f 277//22 274//22 275//22 276//22
f 268//22 278//22 275//22 274//22
f 269//24 271//24 277//24 276//24
f 267//29 273//29 278//29 268//29
f 271//20 272//20 274//20 277//20
f 270//21 269//21 276//21 275//21
